<svg width="512" height="512" viewBox="0 0 512 512" fill="none" xmlns="http://www.w3.org/2000/svg">
<path d="M511.917 255.994C511.917 289.601 505.298 322.879 492.437 353.928C479.576 384.977 460.725 413.188 436.961 436.952C413.197 460.716 384.985 479.566 353.936 492.427C322.887 505.288 289.609 511.907 256.002 511.907C188.129 511.907 123.036 484.945 75.0422 436.952C27.0488 388.959 0.0862737 323.866 0.0862048 255.993C0.0861339 188.121 27.0485 123.028 75.0419 75.0351C123.035 27.042 188.128 0.0797963 256.001 0.0798572C289.609 0.0798873 322.887 6.69933 353.936 19.5602C384.985 32.4211 413.197 51.2716 436.961 75.0354C460.725 98.7993 479.575 127.011 492.436 158.06C505.297 189.109 511.917 222.387 511.917 255.994Z" fill="url(#paint0_radial_80412_60)"/>
<path d="M203.937 174.908C190.351 183.631 179.175 195.628 171.435 209.796C163.695 223.964 159.638 239.85 159.638 255.995C159.638 268.649 162.13 281.18 166.973 292.872C171.816 304.563 178.914 315.186 187.862 324.135C196.81 333.083 207.433 340.181 219.125 345.024C230.816 349.867 243.347 352.359 256.002 352.359C268.657 352.359 281.188 349.866 292.879 345.023C304.571 340.18 315.194 333.082 324.142 324.133C333.09 315.185 340.188 304.562 345.03 292.87C349.873 281.178 352.365 268.647 352.365 255.993C352.364 230.436 342.211 205.927 324.14 187.856C306.069 169.785 281.559 159.632 256.003 159.631C237.542 159.631 219.47 164.934 203.937 174.908ZM238.855 229.291C243.971 226.006 249.922 224.259 256.002 224.259C260.17 224.259 264.297 225.08 268.147 226.674C271.998 228.269 275.496 230.607 278.443 233.554C281.39 236.501 283.728 239.999 285.323 243.85C286.918 247.7 287.739 251.827 287.739 255.995C287.739 260.163 286.918 264.289 285.322 268.14C283.727 271.99 281.389 275.488 278.442 278.435C275.495 281.382 271.996 283.719 268.146 285.314C264.295 286.908 260.168 287.729 256.001 287.728C247.584 287.728 239.513 284.385 233.562 278.434C227.61 272.483 224.267 264.412 224.266 255.996C224.266 250.679 225.602 245.447 228.151 240.781C230.7 236.115 234.381 232.164 238.855 229.291Z" fill="url(#paint1_radial_80412_60)"/>
<path d="M107.92 47.3004C42.6573 93.7454 7.69759e-05 169.99 0.000174043 255.991C0.000325822 397.121 114.875 512 256.006 512C397.137 512 512 397.123 512 255.993C512 193.695 489.607 136.523 452.464 92.0824L366.043 152.594L390.804 187.957L441.93 152.158C459.064 182.85 468.83 218.251 468.83 255.993C468.83 373.788 373.804 468.814 256.009 468.813C138.213 468.813 43.1849 373.785 43.1847 255.99C43.1846 138.195 138.21 43.17 256.006 43.1701C296.822 43.1702 334.902 54.5852 367.245 74.398L404.997 47.9641C362.996 17.7939 311.537 -4.46629e-05 256.005 -9.79542e-05C200.876 -0.000158523 149.755 17.528 107.92 47.3004Z" fill="url(#paint2_radial_80412_60)"/>
<defs>
<radialGradient id="paint0_radial_80412_60" cx="0" cy="0" r="1" gradientUnits="userSpaceOnUse" gradientTransform="translate(144.928 100.155) rotate(-35.0001) scale(390.041 414.433)">
<stop stop-color="#494B48"/>
<stop offset="1" stop-color="#222526"/>
</radialGradient>
<radialGradient id="paint1_radial_80412_60" cx="0" cy="0" r="1" gradientUnits="userSpaceOnUse" gradientTransform="translate(203.937 174.908) rotate(-34.9998) scale(196.12 202.407)">
<stop stop-color="white"/>
<stop offset="0.191306" stop-color="#FCFCFC"/>
<stop offset="1" stop-color="#CECECE"/>
</radialGradient>
<radialGradient id="paint2_radial_80412_60" cx="0" cy="0" r="1" gradientUnits="userSpaceOnUse" gradientTransform="translate(120.403 65.1275) rotate(145) scale(587.056 485.305)">
<stop stop-color="#30ACEA"/>
<stop offset="0.233047" stop-color="#43A5E8"/>
<stop offset="1" stop-color="#A582E3"/>
</radialGradient>
</defs>
</svg>
